{
  "accessors": [
    {
      "bufferView": 2,
      "componentType": 5126,
      "count": 2131,
      "max": [
        74.1152572631836,
        58.54140090942383,
        170.43423461914063
      ],
      "min": [
        -74.48603820800781,
        -71.18673706054688,
        -40.00978469848633
      ],
      "type": "VEC3"
    },
    {
      "bufferView": 2,
      "byteOffset": 25572,
      "componentType": 5126,
      "count": 2131,
      "max": [
        0.9998905062675476,
        0.9999188780784607,
        0.9999055862426758
      ],
      "min": [
        -0.9999424815177917,
        -0.9999790191650391,
        -0.9702596068382263
      ],
      "type": "VEC3"
    },
    {
      "bufferView": 3,
      "componentType": 5126,
      "count": 2131,
      "max": [
        0.9999982714653015,
        0.9995434880256653,
        0.8301631808280945,
        1.0
      ],
      "min": [
        -0.9999996423721313,
        -0.9999935626983643,
        -0.8442344069480896,
        1.0
      ],
      "type": "VEC4"
    },
    {
      "bufferView": 1,
      "componentType": 5126,
      "count": 2131,
      "max": [
        0.991042971611023,
        0.9759740233421326
      ],
      "min": [
        0.00930699985474348,
        0.013163999654352665
      ],
      "type": "VEC2"
    },
    {
      "bufferView": 0,
      "componentType": 5125,
      "count": 12012,
      "type": "SCALAR"
    }
  ],
  "asset": {
    "extras": {
      "author": "VidovicArts (https://sketchfab.com/oshjavid)",
      "license": "CC-BY-4.0 (http://creativecommons.org/licenses/by/4.0/)",
      "source": "https://sketchfab.com/3d-models/easter-island-head-63b114c5e7d24f7fae421dfacfe41376",
      "title": "Easter island head"
    },
    "generator": "Sketchfab-12.66.0",
    "version": "2.0"
  },
  "bufferViews": [
    {
      "buffer": 0,
      "byteLength": 48048,
      "name": "floatBufferViews",
      "target": 34963
    },
    {
      "buffer": 0,
      "byteLength": 17048,
      "byteOffset": 48048,
      "byteStride": 8,
      "name": "floatBufferViews",
      "target": 34962
    },
    {
      "buffer": 0,
      "byteLength": 51144,
      "byteOffset": 65096,
      "byteStride": 12,
      "name": "floatBufferViews",
      "target": 34962
    },
    {
      "buffer": 0,
      "byteLength": 34096,
      "byteOffset": 116240,
      "byteStride": 16,
      "name": "floatBufferViews",
      "target": 34962
    }
  ],
  "buffers": [
    {
      "byteLength": 150336,
      "uri": "scene.bin"
    }
  ],
  "images": [
    {
      "uri": "textures/Scene_-_Root_baseColor.jpeg"
    },
    {
      "uri": "textures/Scene_-_Root_normal.jpeg"
    }
  ],
  "materials": [
    {
      "doubleSided": true,
      "name": "Scene_-_Root",
      "normalTexture": {
        "index": 1
      },
      "pbrMetallicRoughness": {
        "baseColorTexture": {
          "index": 0
        },
        "metallicFactor": 0.0,
        "roughnessFactor": 0.6
      }
    }
  ],
  "meshes": [
    {
      "name": "Object_0",
      "primitives": [
        {
          "attributes": {
            "NORMAL": 1,
            "POSITION": 0,
            "TANGENT": 2,
            "TEXCOORD_0": 3
          },
          "indices": 4,
          "material": 0,
          "mode": 4
        }
      ]
    }
  ],
  "nodes": [
    {
      "children": [
        1
      ],
      "matrix": [
        0.9999814629554749,
        0.006092174910008907,
        1.352734571027116e-18,
        0.0,
        0.0,
        2.220446049250313e-16,
        -1.0,
        0.0,
        -0.006092174910008907,
        0.9999814629554749,
        2.2204048887430324e-16,
        0.0,
        0.3972809612751007,
        0.00233997730538249,
        5.195793363071944e-19,
        1.0
      ],
      "name": "Sketchfab_model"
    },
    {
      "children": [
        2
      ],
      "name": "ca2f93657a3f4546bd2a5aa2ae44050a.obj.cleaner"
    },
    {
      "mesh": 0,
      "name": "Object_2"
    }
  ],
  "samplers": [
    {
      "magFilter": 9729,
      "minFilter": 9987,
      "wrapS": 10497,
      "wrapT": 10497
    }
  ],
  "scene": 0,
  "scenes": [
    {
      "name": "Sketchfab_Scene",
      "nodes": [
        0
      ]
    }
  ],
  "textures": [
    {
      "sampler": 0,
      "source": 0
    },
    {
      "sampler": 0,
      "source": 1
    }
  ]
}
